<?xml version="1.0" encoding="UTF-8"?>
<svg width="24px" height="24px" viewBox="0 0 24 24" version="1.1" xmlns="http://www.w3.org/2000/svg" xmlns:xlink="http://www.w3.org/1999/xlink">
    <!-- Generator: Sketch 59.1 (86144) - https://sketch.com -->
    <title>Icon-Close</title>
    <desc>Created with Sketch.</desc>
    <g id="Icon-Close" stroke="none" stroke-width="1" fill="none" fill-rule="evenodd">
        <g transform="translate(1.000000, 1.000000)" fill="#ffffff" fill-rule="nonzero" id="路径">
            <path d="M13.1626838,10.9834559 L21.5124081,2.63373162 C22.1141853,2.03195444 22.1141853,1.05628086 21.5124081,0.454503676 C20.9106309,-0.147273503 19.9349573,-0.147273503 19.3331801,0.454503676 L10.9834559,8.80422794 L2.63373162,0.454503676 C2.03195444,-0.147273503 1.05628086,-0.147273503 0.454503676,0.454503676 C-0.147273503,1.05628086 -0.147273503,2.03195444 0.454503676,2.63373162 L8.80422794,10.9834559 L0.454503676,19.3331801 C-0.147273503,19.9349573 -0.147273503,20.9106309 0.454503676,21.5124081 C1.05628086,22.1141853 2.03195444,22.1141853 2.63373162,21.5124081 L10.9834559,13.162454 L19.3331801,21.5121783 C19.9349573,22.1139555 20.9106309,22.1139555 21.5124081,21.5121783 C22.1141853,20.9104011 22.1141853,19.9347275 21.5124081,19.3329504 L13.1626838,10.9834559 Z"></path>
        </g>
    </g>
</svg>
